<svg xmlns="http://www.w3.org/2000/svg" fill="none" viewBox="0 0 64 64">
    <title>Github</title>
    <desc>An icon representing the github logo</desc>
    <path fill="currentColor" fill-rule="evenodd" d="M32 4C16.535 4 4 16.622 4 32.196c0 12.456 8.02 23.026 19.149 26.757 1.4.255 1.906-.613 1.906-1.36 0-.67-.023-2.445-.031-4.794-7.79 1.702-9.436-3.782-9.436-3.782-1.268-3.257-3.107-4.125-3.107-4.125-2.54-1.75.194-1.71.194-1.71 2.813.198 4.286 2.906 4.286 2.906 2.499 4.308 6.558 3.064 8.147 2.343.255-1.823.985-3.067 1.783-3.77-6.216-.71-12.751-3.13-12.751-13.938 0-3.073 1.092-5.594 2.875-7.562-.284-.715-1.252-3.584.278-7.463 0 0 2.35-.76 7.697 2.886a26.724 26.724 0 0 1 7.007-.95c2.367.004 4.723.324 7.007.95 5.35-3.65 7.698-2.886 7.698-2.886 1.53 3.879.57 6.748.278 7.463 1.796 1.968 2.874 4.486 2.874 7.562 0 10.836-6.54 13.216-12.778 13.915.996.87 1.895 2.59 1.895 5.218 0 3.771-.034 6.813-.034 7.737 0 .755.5 1.632 1.928 1.355C51.988 55.21 60 44.648 60 32.196 60 16.622 47.465 4 32 4Z" clip-rule="evenodd"/>
</svg>