<svg xmlns="http://www.w3.org/2000/svg" fill="none" viewBox="0 0 64 64">
    <title>Linkedin</title>
    <desc>An icon representing the linkedin logo</desc>
    <path fill="currentColor" d="M12.25 18.52a6.255 6.255 0 0 0 6.25-6.26C18.5 8.803 15.7 6 12.25 6 8.798 6 6 8.803 6 12.26a6.255 6.255 0 0 0 6.25 6.26ZM24.4 23.265v34.732h10.766V40.821c0-4.532.852-8.921 6.461-8.921 5.533 0 5.602 5.181 5.602 9.207V58H58V38.953c0-9.356-2.01-16.547-12.928-16.547-5.241 0-8.755 2.882-10.191 5.608h-.146v-4.75H24.401Zm-17.543 0H17.64v34.732H6.857V23.265Z"/>
</svg>