<svg xmlns="http://www.w3.org/2000/svg" fill="none" viewBox="0 0 64 64">
    <title>Sun</title>
    <desc>An icon representing the sun</desc>
    <path fill="currentColor" fill-rule="evenodd" d="M28.875 7.111A3.11 3.11 0 0 1 31.985 4h.03a3.11 3.11 0 0 1 3.11 3.111 3.11 3.11 0 0 1-3.11 3.111h-.03a3.11 3.11 0 0 1-3.11-3.11Zm-17.59 7.29a3.11 3.11 0 0 1 3.11-3.112h.03a3.11 3.11 0 0 1 3.11 3.111 3.11 3.11 0 0 1-3.11 3.112h-.03a3.11 3.11 0 0 1-3.11-3.112Zm35.18 0a3.11 3.11 0 0 1 3.11-3.112h.03a3.11 3.11 0 0 1 3.11 3.111 3.11 3.11 0 0 1-3.11 3.112h-.03a3.11 3.11 0 0 1-3.11-3.112ZM20.99 21a15.542 15.542 0 0 1 21.987 0 15.56 15.56 0 0 1 0 21.998 15.542 15.542 0 0 1-21.987 0 15.56 15.56 0 0 1 0-21.998ZM4 32a3.11 3.11 0 0 1 3.11-3.111h.03a3.11 3.11 0 0 1 0 6.222h-.03A3.11 3.11 0 0 1 4 32Zm49.75 0a3.11 3.11 0 0 1 3.11-3.111h.03A3.11 3.11 0 0 1 60 32a3.11 3.11 0 0 1-3.11 3.111h-.03A3.11 3.11 0 0 1 53.75 32ZM11.285 49.6a3.11 3.11 0 0 1 3.11-3.112h.03a3.11 3.11 0 0 1 3.11 3.112 3.11 3.11 0 0 1-3.11 3.11h-.03a3.11 3.11 0 0 1-3.11-3.11Zm35.18 0a3.11 3.11 0 0 1 3.11-3.112h.03a3.11 3.11 0 0 1 3.11 3.112 3.11 3.11 0 0 1-3.11 3.11h-.03a3.11 3.11 0 0 1-3.11-3.11Zm-17.59 7.289a3.11 3.11 0 0 1 3.11-3.111h.03a3.11 3.11 0 0 1 3.11 3.11A3.11 3.11 0 0 1 32.015 60h-.03a3.11 3.11 0 0 1-3.11-3.111Z" clip-rule="evenodd"/>
</svg>