<svg xmlns="http://www.w3.org/2000/svg" fill="none" viewBox="0 0 64 64">
    <title>Twitter</title>
    <desc>An icon representing the twitter logo</desc>
    <path fill="currentColor" d="M54.247 20.464c.037.504.037 1.006.037 1.507C54.284 37.317 42.734 55 21.628 55A32.168 32.168 0 0 1 4 49.787c.923.106 1.812.144 2.773.144a22.832 22.832 0 0 0 14.25-4.96 11.418 11.418 0 0 1-6.641-2.286 11.628 11.628 0 0 1-4.093-5.763c.71.107 1.422.179 2.169.179 1.028 0 2.063-.144 3.023-.395a11.454 11.454 0 0 1-6.615-4.033 11.686 11.686 0 0 1-2.59-7.359v-.144c1.531.862 3.306 1.4 5.187 1.473a11.544 11.544 0 0 1-3.76-4.183 11.695 11.695 0 0 1-1.358-5.483c0-2.156.567-4.133 1.562-5.856a32.72 32.72 0 0 0 10.558 8.616 32.362 32.362 0 0 0 13.11 3.531 13.331 13.331 0 0 1-.284-2.66c-.001-1.524.295-3.034.872-4.443a11.615 11.615 0 0 1 2.488-3.767 11.467 11.467 0 0 1 3.724-2.516A11.36 11.36 0 0 1 42.77 9c3.305 0 6.289 1.4 8.386 3.666a22.518 22.518 0 0 0 7.283-2.804 11.563 11.563 0 0 1-5.046 6.397A22.801 22.801 0 0 0 60 14.461a24.79 24.79 0 0 1-5.753 6.003Z"/>
</svg>