<svg xmlns="http://www.w3.org/2000/svg" fill="none" viewBox="0 0 953 350">
  <path
    fill="url(#gradient-fill)"
    d="M0 288.274v-70.919L135.433 4.597h64.429v94.559h-36.817L90.069 214.728v2.627h199.862v70.919H0Zm163.702 52.533v-74.203l1.973-30.863V4.597h85.467v336.21h-87.44Z"
  />
  <path
    fill="url(#gradient-fill)"
    d="M474.877 350c-30.571-.109-56.978-7.169-79.222-21.177-22.243-14.009-39.391-34.201-51.444-60.577-12.053-26.376-18.025-58.005-17.915-94.888.109-36.992 6.136-68.402 18.079-94.23 12.053-25.83 29.147-45.474 51.28-58.936C417.899 6.731 444.306 0 474.877 0c30.571 0 56.978 6.785 79.221 20.357 22.244 13.461 39.392 33.106 51.445 58.935 12.053 25.828 18.025 57.184 17.915 94.066 0 37.102-6.026 68.84-18.079 95.216-12.053 26.376-29.202 46.568-51.445 60.577C531.8 343.05 505.448 350 474.877 350Zm0-74.203c15.778 0 28.708-8.208 38.789-24.624 10.19-16.526 15.231-42.464 15.121-77.815 0-23.092-2.301-41.971-6.903-56.637-4.602-14.665-10.957-25.5-19.066-32.504-8.108-7.114-17.422-10.671-27.941-10.671-15.779 0-28.653 7.99-38.625 23.968-9.971 15.979-15.066 41.26-15.285 75.844-.11 23.531 2.137 42.902 6.739 58.115 4.602 15.103 10.957 26.266 19.065 33.489 8.218 7.224 17.587 10.835 28.106 10.835Z"
  />
  <path
    fill="url(#gradient-fill)"
    d="M663.069 288.274v-70.919L798.502 4.597h64.429v94.559h-36.817l-72.976 115.572v2.627H953v70.919H663.069Zm163.703 52.533v-74.203l1.972-30.863V4.597h85.467v336.21h-87.439Z"
  />
  <defs>
    <linearGradient id="gradient-fill" x1="476.5" x2="476.5" y1="0" y2="350" gradientUnits="userSpaceOnUse">
      <stop stop-color="currentColor" />
      <stop offset="1" stop-color="currentColor" stop-opacity=".2" />
    </linearGradient>
  </defs>
</svg>
